<?xml version="1.0" standalone="no"?>
<!DOCTYPE svg PUBLIC "-//W3C//DTD SVG 20010904//EN"
 "http://www.w3.org/TR/2001/REC-SVG-20010904/DTD/svg10.dtd">
<svg version="1.0" xmlns="http://www.w3.org/2000/svg"
 width="962.000000pt" height="1201.000000pt" viewBox="0 0 962.000000 1201.000000"
 preserveAspectRatio="xMidYMid meet">

<g transform="translate(0.000000,1201.000000) scale(0.100000,-0.100000)"
fill="#000000" stroke="none">
<path d="M880 11993 c-318 -23 -870 -102 -870 -125 0 -9 147 -603 155 -624 3
-9 21 -8 70 2 213 45 617 87 940 99 312 11 761 -21 1125 -80 485 -80 1029
-246 1453 -444 60 -28 114 -48 120 -44 5 3 7 2 4 -4 -3 -5 23 -24 59 -41 73
-36 75 -37 72 -19 -2 6 3 11 10 9 8 -1 11 2 7 8 -3 6 -11 8 -16 5 -5 -4 -12 1
-15 9 -3 9 -10 13 -15 10 -5 -3 -6 2 -3 11 4 10 2 15 -6 13 -7 -2 -15 4 -17
12 -4 13 -3 13 6 0 10 -13 11 -13 12 0 0 9 4 7 11 -7 10 -20 21 -28 31 -21 1
1 13 -4 27 -11 l25 -12 -22 18 c-15 12 -21 26 -19 40 3 14 -2 27 -12 33 -14 9
-13 10 6 5 13 -4 22 -2 22 4 0 6 5 11 11 11 8 0 8 -4 -1 -15 -6 -8 -8 -20 -4
-26 4 -7 3 -9 -3 -6 -5 3 -10 -1 -10 -9 0 -13 2 -13 14 -1 8 8 15 20 17 28 1
8 8 24 14 37 7 12 8 22 3 22 -5 0 -11 -8 -13 -17 -3 -15 -5 -14 -10 5 -4 14
-2 20 5 15 7 -4 8 0 4 11 -4 10 -4 23 0 29 4 6 8 25 10 42 2 16 6 44 9 60 3
17 5 39 5 50 0 16 2 17 10 5 9 -12 10 -10 6 8 -3 12 -1 22 3 22 4 0 7 13 6 29
-1 17 2 28 6 25 4 -3 8 4 8 16 0 12 5 18 10 15 6 -4 7 -13 1 -23 -5 -9 -9 -20
-10 -24 -1 -5 -1 -9 -2 -10 0 -2 -3 -16 -5 -33 -3 -16 -10 -35 -16 -42 -5 -7
-6 -18 -2 -24 4 -7 3 -9 -2 -6 -10 6 -17 -40 -17 -102 0 -24 -2 -29 -9 -20 -8
11 -9 11 -6 1 5 -18 23 -16 23 2 0 8 3 17 7 21 3 3 3 25 0 47 -4 33 -2 40 9
33 8 -5 11 -5 7 0 -4 4 -3 14 2 21 6 6 10 16 9 20 -4 25 2 54 10 49 6 -3 8 3
6 15 -2 11 0 22 5 25 5 3 6 13 3 22 -5 12 -3 14 8 8 11 -7 12 -6 2 7 -7 8 -9
19 -5 23 4 5 1 5 -5 1 -8 -4 -13 -1 -13 9 0 9 5 13 10 10 6 -4 10 -3 9 2 -4
20 2 27 12 13 9 -13 10 -13 6 2 -3 9 -3 19 1 23 10 10 10 65 0 59 -4 -3 -8 1
-8 8 0 18 -65 52 -81 43 -7 -5 -10 -4 -6 2 8 12 -90 58 -313 148 -640 259
-1291 413 -1966 464 -125 10 -808 13 -924 4z m3273 -668 c-3 -10 -1 -15 7 -13
20 5 21 -38 1 -56 -15 -14 -21 -15 -27 -4 -15 24 -12 37 8 33 12 -3 18 0 15 8
-3 7 -10 11 -16 9 -9 -2 -9 3 -1 18 13 24 22 27 13 5z m-27 -101 c1 -9 0 -13
-4 -10 -3 4 -7 14 -8 22 -1 9 0 13 4 10 3 -4 7 -14 8 -22z m-11 -23 c3 -5 2
-12 -3 -15 -5 -3 -9 1 -9 9 0 17 3 19 12 6z m-11 -47 c3 -8 2 -12 -4 -9 -6 3
-10 10 -10 16 0 14 7 11 14 -7z m-64 -268 c0 -3 -4 -8 -10 -11 -5 -3 -10 -1
-10 4 0 6 5 11 10 11 6 0 10 -2 10 -4z m-60 -50 c0 -2 -8 -10 -17 -17 -16 -13
-17 -12 -4 4 13 16 21 21 21 13z m-90 -20 c0 -2 -8 -10 -17 -17 -16 -13 -17
-12 -4 4 13 16 21 21 21 13z m120 -2 c0 -8 -19 -13 -24 -6 -3 5 1 9 9 9 8 0
15 -2 15 -3z m-83 -41 c-4 -3 -1 -13 6 -22 11 -14 10 -14 -5 -2 -16 12 -16 31
-1 31 4 0 3 -3 0 -7z m68 -43 c3 -5 1 -10 -4 -10 -6 0 -11 5 -11 10 0 6 2 10
4 10 3 0 8 -4 11 -10z"/>
<path d="M4135 11271 c-3 -5 -1 -12 5 -16 5 -3 10 1 10 9 0 18 -6 21 -15 7z"/>
<path d="M7835 11989 c-195 -15 -395 -39 -611 -74 -116 -19 -214 -35 -218 -35
-4 0 -5 -4 -2 -8 3 -5 -9 -6 -26 -4 -23 4 -29 1 -23 -8 5 -8 2 -10 -11 -7 -11
4 -34 3 -53 -1 -32 -7 -33 -8 -15 -22 13 -11 16 -11 10 -2 -7 11 -4 12 12 3
15 -8 21 -8 24 1 3 7 7 5 11 -6 4 -10 3 -15 -3 -11 -6 3 -10 2 -10 -3 0 -16
13 -22 25 -12 8 7 12 5 12 -5 0 -8 -4 -12 -9 -9 -10 6 -10 1 -2 -20 5 -14 9
-14 23 -4 13 10 14 10 4 -2 -15 -17 -17 -34 -3 -25 6 4 7 -1 3 -11 -4 -12 -3
-15 6 -10 7 5 10 2 9 -5 -2 -7 3 -14 10 -15 6 -1 15 -2 19 -3 4 0 2 -6 -5 -13
-14 -14 -16 -32 -2 -23 6 4 7 -1 3 -11 -4 -12 -3 -15 5 -10 8 5 10 1 5 -10 -4
-11 -3 -15 5 -10 6 3 14 1 18 -5 4 -7 3 -9 -3 -6 -12 8 -14 -72 -3 -88 4 -5 6
-18 5 -28 -2 -9 1 -15 6 -11 5 3 7 10 4 15 -4 5 -1 9 5 9 6 0 9 4 5 9 -3 5 -1
12 4 16 13 7 3 -45 -12 -65 -9 -12 -9 -13 2 -3 7 6 21 9 30 5 14 -5 14 -3 3
10 -9 11 -10 18 -2 23 6 4 9 1 8 -7 -2 -7 4 -12 12 -10 11 3 10 -2 -4 -17 -11
-12 -16 -22 -13 -22 4 -1 10 -2 15 -3 18 -3 53 -44 43 -51 -6 -3 -11 -1 -11 6
0 7 -3 9 -6 6 -9 -8 15 -37 30 -37 6 0 4 5 -4 10 -13 8 -13 10 2 10 23 0 34
-20 17 -32 -11 -8 -10 -8 4 -4 13 4 30 -5 54 -26 19 -18 40 -32 46 -30 7 2 8
0 4 -4 -12 -12 -38 -14 -31 -2 5 7 2 8 -6 3 -9 -5 -11 -4 -6 3 5 8 2 10 -9 6
-14 -6 -14 -8 2 -19 19 -14 52 -12 193 10 593 91 1234 84 1859 -21 84 -14 156
-22 161 -17 8 9 163 624 158 629 -2 1 -100 18 -218 38 -227 37 -413 61 -595
75 -143 11 -818 11 -960 0z m-778 -416 c-4 -3 -2 -12 3 -18 7 -9 5 -17 -7 -26
-16 -13 -17 -12 -5 3 9 11 10 18 2 23 -10 6 -5 25 7 25 4 0 3 -3 0 -7z"/>
<path d="M6758 11813 c7 -3 16 -2 19 1 4 3 -2 6 -13 5 -11 0 -14 -3 -6 -6z"/>
<path d="M6882 11811 c-11 -7 -11 -9 2 -14 9 -4 16 -13 16 -20 0 -8 7 -20 15
-27 8 -7 13 -15 11 -19 -3 -4 0 -13 6 -21 8 -12 9 -12 4 3 -3 11 -2 16 4 12
12 -7 13 -31 3 -38 -5 -2 -2 -2 5 -1 8 2 11 -5 8 -21 -3 -13 2 -29 10 -36 12
-9 12 -15 2 -27 -11 -13 -11 -14 2 -7 30 19 45 14 20 -6 -22 -18 -23 -19 -2
-9 19 9 22 8 22 -8 0 -10 -6 -24 -12 -32 -11 -12 -10 -12 3 -2 9 6 18 10 20 7
12 -11 -1 55 -16 84 -13 27 -14 35 -3 49 7 9 8 13 2 9 -14 -8 -34 14 -69 81
-30 55 -32 57 -53 43z m42 -41 c8 -17 11 -28 6 -25 -5 3 -15 19 -24 35 -8 17
-11 28 -6 25 5 -3 15 -19 24 -35z m57 -87 c13 -16 12 -17 -3 -4 -17 13 -22 21
-14 21 2 0 10 -8 17 -17z m4 -41 c-3 -3 1 -12 7 -21 10 -12 7 -12 -8 2 -11 9
-21 24 -21 32 0 11 4 12 14 3 7 -6 11 -13 8 -16z"/>
<path d="M6999 11513 c-13 -16 -12 -17 4 -4 16 13 21 21 13 21 -2 0 -10 -8
-17 -17z"/>
<path d="M7125 11320 c-4 -6 -10 -8 -15 -5 -5 3 -11 2 -14 -3 -2 -4 6 -8 18
-8 12 0 23 6 23 13 0 16 -4 16 -12 3z"/>
<path d="M7218 11303 c7 -3 16 -2 19 1 4 3 -2 6 -13 5 -11 0 -14 -3 -6 -6z"/>
<path d="M7131 11276 c-9 -11 -9 -16 1 -22 7 -4 10 -4 6 1 -4 4 -3 14 3 22 6
7 9 13 6 13 -2 0 -10 -6 -16 -14z"/>
<path d="M4055 10781 c-3 -5 -2 -12 3 -15 5 -3 9 1 9 9 0 17 -3 19 -12 6z"/>
<path d="M3873 10225 c0 -8 4 -12 9 -9 5 3 6 10 3 15 -9 13 -12 11 -12 -6z"/>
<path d="M3714 10099 c-3 -6 -2 -15 3 -20 5 -5 9 -1 9 11 0 23 -2 24 -12 9z"/>
<path d="M3609 10002 c-352 -367 -671 -788 -928 -1227 -125 -213 -327 -626
-418 -855 -257 -649 -403 -1288 -453 -1979 -21 -294 -12 -806 21 -1116 128
-1230 618 -2423 1391 -3386 426 -531 880 -947 1496 -1369 l92 -63 93 63 c613
421 1072 840 1491 1364 312 390 529 731 756 1191 298 604 492 1214 594 1876
29 186 31 202 16 179 -9 -13 -10 -13 -11 0 0 10 -3 8 -8 -5 -5 -11 -5 -25 0
-31 5 -7 3 -11 -6 -11 -7 0 -14 3 -13 6 2 20 -4 22 -21 7 -19 -17 -19 -17 -16
1 1 10 9 16 16 15 8 -2 10 0 6 4 -11 11 -38 14 -32 4 3 -5 1 -11 -5 -15 -6 -4
-8 -10 -5 -15 3 -5 1 -12 -5 -15 -6 -4 -10 -3 -9 2 4 22 -3 25 -17 7 -8 -10
-13 -13 -9 -7 3 7 2 20 -3 29 -8 15 -10 15 -15 0 -5 -12 -3 -15 6 -10 8 5 7 2
-2 -9 -18 -22 -20 -22 -17 8 2 13 -1 22 -5 19 -5 -3 -9 -14 -9 -24 0 -10 -4
-21 -8 -24 -5 -3 -7 9 -5 27 2 28 2 29 -5 7 -5 -15 -15 -25 -27 -25 -11 0 -26
-4 -34 -9 -10 -6 -12 -5 -7 2 4 7 2 12 -5 12 -8 0 -9 4 0 13 8 10 7 14 -4 14
-7 0 -13 -3 -12 -6 1 -3 -5 -16 -13 -28 l-14 -22 -19 27 c-11 15 -17 19 -13 9
3 -9 1 -17 -5 -17 -6 0 -7 -5 -4 -10 4 -6 11 -7 17 -4 7 4 8 2 4 -5 -6 -9 -11
-9 -22 0 -8 6 -14 8 -14 4 0 -4 -6 -3 -13 4 -10 8 -17 7 -27 -2 -10 -9 -11 -9
-6 1 5 7 1 12 -9 12 -10 0 -14 -5 -9 -12 6 -10 4 -10 -7 -1 -18 18 -34 16 -19
-1 10 -13 8 -13 -14 -3 -16 8 -21 14 -13 19 7 5 1 6 -13 4 -14 -3 -28 -5 -32
-5 -4 -1 -6 -7 -4 -13 1 -7 1 -10 -1 -6 -6 10 -67 -3 -75 -15 -6 -9 -8 -8 -8
1 0 8 -9 12 -22 10 -19 -3 -24 -15 -40 -113 -10 -60 -35 -180 -54 -265 -238
-1030 -716 -1930 -1440 -2714 -117 -127 -420 -416 -436 -416 -5 0 -7 831 -5
1848 3 1648 5 1855 19 1917 11 50 13 74 5 83 -7 9 -7 16 2 25 10 9 11 8 6 -8
-5 -15 -4 -16 3 -6 12 17 5 46 -16 63 -10 9 -13 9 -9 1 4 -6 3 -14 -3 -18 -5
-3 -11 -1 -11 4 -1 6 -2 15 -3 20 0 5 -5 13 -9 18 -5 4 -7 3 -5 -2 2 -6 -1
-11 -7 -12 -5 -2 -10 2 -10 7 0 6 -3 10 -7 10 -5 0 -8 -3 -7 -6 0 -4 -5 -10
-11 -14 -9 -5 -9 -9 -1 -14 6 -4 11 -1 11 6 0 8 5 6 11 -5 6 -10 8 -21 5 -24
-3 -4 -6 -1 -6 6 0 7 -4 10 -9 7 -19 -12 -31 19 -17 46 12 23 12 25 -8 24 -12
-1 -20 4 -18 12 1 8 -2 11 -7 7 -6 -3 -18 6 -27 20 -12 18 -20 23 -27 16 -17
-17 -41 8 -25 26 9 11 8 13 -3 11 -8 -2 -13 3 -11 12 2 8 0 12 -4 8 -9 -9 -36
11 -29 21 2 4 -3 8 -11 8 -9 0 -11 -4 -5 -10 5 -5 6 -21 1 -37 -5 -16 -5 -32
-2 -37 4 -4 -5 3 -20 16 -15 13 -26 26 -25 30 1 3 -2 7 -8 9 -19 6 -45 35 -45
50 0 12 -3 12 -17 1 -16 -13 -17 -12 -5 3 9 11 10 18 2 23 -5 3 -10 1 -10 -5
0 -8 -4 -7 -13 2 -18 18 -14 74 4 70 8 -2 4 7 -8 19 -18 18 -25 21 -35 11 -9
-9 -7 -16 7 -32 13 -14 15 -24 8 -31 -8 -8 -19 0 -38 25 -15 20 -31 33 -36 30
-5 -3 -9 -2 -8 3 3 16 -14 53 -21 48 -5 -3 -11 -1 -15 5 -4 6 -11 8 -16 4 -5
-3 -9 -2 -8 3 3 20 -2 34 -11 28 -6 -4 -7 -11 -4 -17 5 -7 2 -8 -5 -3 -9 5 -9
11 -3 17 6 6 8 16 6 23 -3 7 0 16 7 21 8 5 11 2 7 -7 -3 -8 0 -23 8 -34 8 -10
14 -13 14 -6 0 7 5 9 11 5 8 -5 8 -9 -1 -14 -9 -5 -9 -9 -1 -14 6 -4 11 -2 11
5 0 18 17 -1 23 -26 4 -18 5 -17 6 3 0 13 5 20 11 17 6 -4 8 -11 4 -16 -3 -5
0 -17 8 -26 7 -9 12 -18 11 -20 -2 -1 -3 -6 -2 -10 0 -5 5 3 10 16 8 20 5 29
-17 52 -15 16 -32 27 -38 26 -6 -1 -10 4 -8 11 1 8 -2 11 -7 8 -5 -4 -12 0
-14 6 -4 10 -6 10 -6 0 -1 -7 -5 -11 -11 -7 -5 3 -7 12 -4 19 3 7 -2 19 -11
26 -9 7 -15 9 -13 4 2 -5 -1 -11 -7 -14 -5 -3 -10 2 -10 10 0 8 -4 17 -10 18
-5 2 -17 9 -25 15 -13 10 -13 10 -1 -5 14 -19 5 -23 -18 -9 -8 5 -11 16 -8 26
4 9 11 13 17 10 16 -10 12 1 -6 15 -8 8 -14 9 -13 4 4 -24 -2 -26 -17 -6 -8
12 -23 21 -32 20 -11 -2 -16 3 -13 12 2 8 4 20 5 25 1 6 6 17 11 25 8 13 7 13
-8 1 -13 -11 -17 -11 -17 -1 0 8 -3 10 -6 7 -4 -4 -1 -13 5 -21 8 -10 9 -16 1
-21 -6 -4 -9 -1 -8 7 2 7 -2 12 -9 11 -7 -2 -10 4 -7 12 4 8 1 15 -5 15 -6 0
-11 -4 -11 -10 0 -5 -8 -2 -18 8 -11 9 -17 20 -15 25 2 4 -1 7 -7 7 -6 0 -8 5
-4 12 4 6 3 8 -4 4 -6 -3 -16 0 -24 7 -7 8 -24 19 -36 26 -12 7 -20 17 -16 23
4 7 2 8 -5 4 -14 -9 -43 12 -35 25 3 5 0 9 -6 9 -6 0 -8 5 -5 10 3 6 0 10 -7
10 -9 0 -9 3 2 10 13 8 12 10 -3 10 -10 0 -15 5 -12 10 3 6 0 10 -7 10 -10 0
-9 3 2 11 12 9 11 10 -6 6 -17 -4 -20 0 -18 19 1 13 -3 24 -9 24 -7 0 -6 5 3
11 12 9 11 10 -5 6 -17 -3 -20 1 -19 28 2 26 -2 32 -15 28 -10 -2 -22 2 -28 9
-12 14 -13 17 -13 48 0 11 -3 19 -7 19 -19 -3 -22 3 -12 27 8 23 8 25 -5 15
-12 -10 -18 -6 -35 28 -10 23 -16 41 -11 41 4 0 14 -17 22 -37 11 -31 15 -35
21 -20 4 10 3 16 -1 13 -5 -3 -14 10 -20 28 -11 29 -17 33 -43 31 -16 -1 -28
0 -25 3 3 3 0 12 -7 21 -10 14 -10 14 4 4 20 -16 33 -5 17 14 -8 10 -8 17 0
25 8 8 7 18 -3 38 -9 17 -10 31 -5 36 6 6 -1 10 -18 11 -23 1 -24 1 -7 -7 18
-8 18 -9 2 -9 -10 -1 -15 -6 -12 -11 4 -6 11 -8 16 -5 5 3 6 -2 2 -11 -4 -10
-2 -15 4 -11 5 3 10 0 10 -8 0 -10 -4 -12 -12 -5 -7 5 -15 7 -19 3 -4 -4 -4 1
0 11 5 13 4 17 -3 13 -6 -4 -17 0 -24 9 -10 12 -10 15 1 12 16 -3 20 21 7 39
-5 7 -14 10 -19 7 -6 -4 -4 4 2 17 16 30 24 39 18 19 -6 -18 9 -50 23 -50 6 0
4 6 -4 14 -8 8 -13 26 -12 40 2 15 -1 23 -6 20 -6 -3 -8 5 -5 20 3 18 1 24 -6
20 -7 -5 -9 0 -5 15 4 18 3 20 -9 10 -11 -9 -14 -8 -14 4 0 9 5 19 10 22 6 4
8 11 4 16 -3 5 -10 7 -15 3 -5 -3 -6 -10 -3 -16 4 -7 2 -8 -5 -4 -6 4 -9 11
-6 16 3 5 -5 16 -17 24 -26 19 -16 21 15 4 19 -10 20 -9 10 4 -7 8 -9 19 -5
23 4 5 1 5 -5 1 -9 -5 -12 0 -10 16 1 13 -2 22 -8 21 -5 0 -16 6 -24 14 -12
13 -11 15 10 9 13 -3 18 -3 12 0 -7 3 -13 15 -14 27 0 21 -1 21 -9 2 -8 -19
-9 -18 -11 5 -1 14 -1 35 -1 48 1 13 -5 25 -12 28 -8 3 -12 14 -9 27 5 22 5
22 -10 2 -14 -18 -16 -18 -13 -2 1 10 9 23 17 28 11 7 11 9 1 9 -9 0 -11 7 -7
20 4 13 -3 31 -21 55 -14 19 -23 35 -19 35 4 0 2 7 -5 15 -7 8 -9 15 -6 15 4
0 1 7 -8 15 -8 8 -20 15 -26 15 -6 0 -9 4 -5 9 3 5 0 16 -7 23 -7 8 -18 23
-25 33 -6 11 -16 19 -23 17 -6 -1 -9 2 -5 8 4 6 -7 25 -24 42 -17 17 -28 35
-25 40 3 4 0 8 -5 8 -6 0 -10 6 -9 13 2 6 -3 11 -10 9 -8 -1 -11 2 -6 9 3 6 1
15 -7 19 -7 5 -14 14 -15 22 -1 7 -25 60 -52 118 -68 143 -119 309 -140 455
-4 28 -7 140 -6 250 0 171 4 215 24 305 12 58 23 114 24 125 0 11 5 23 9 26 5
4 10 18 10 33 1 14 5 26 10 26 4 0 7 9 7 19 0 11 5 23 11 26 6 4 8 13 5 21 -3
8 -2 14 2 14 12 0 57 112 54 135 -2 17 -1 17 8 5 8 -12 9 -11 7 7 -2 12 -6 25
-10 29 -3 3 1 18 10 33 14 24 14 25 -1 7 -11 -13 -16 -15 -16 -6 0 7 8 22 18
33 9 11 11 17 5 13 -15 -8 -17 6 -3 20 6 6 5 15 -1 24 -9 13 -10 12 -5 -2 3
-10 1 -20 -4 -23 -6 -4 -10 8 -10 25 0 17 4 29 9 26 10 -7 9 20 -2 30 -4 4 1
16 10 26 10 11 13 19 8 18 -22 -5 -27 1 -15 15 7 8 9 15 5 15 -4 0 -1 8 6 17
10 11 10 14 2 9 -18 -10 -16 4 5 28 16 20 16 20 0 7 -10 -7 -18 -12 -19 -10 0
2 -2 14 -3 26 -2 18 0 20 11 11 11 -8 12 -7 7 6 -8 20 -30 21 -38 1 -3 -8 -2
-15 3 -15 4 0 8 -6 8 -14 0 -8 -5 -14 -10 -13 -5 1 -11 -6 -12 -15 -3 -16 5
-22 26 -20 3 1 6 -6 6 -14 0 -10 -4 -11 -11 -4 -12 12 -29 14 -22 2 2 -4 1
-14 -5 -22 -5 -8 -9 -10 -10 -5 -5 47 -5 66 1 70 4 3 6 16 5 30 -2 14 1 23 6
19 5 -3 9 0 9 5 0 18 -5 26 -12 24 -4 -2 -4 6 0 17 7 18 10 20 32 20 12 0 9
-22 -5 -32 -6 -4 -2 -8 8 -8 17 0 21 11 17 39 -1 13 1 13 17 1 15 -12 16 -12
6 0 -16 18 -17 34 -1 24 7 -5 8 -3 2 7 -13 21 -14 70 -2 63 7 -5 7 -1 1 11 -9
15 15 188 32 234 3 8 0 11 -8 8 -8 -3 -14 1 -14 9 0 7 5 11 10 7 5 -3 7 5 3
18 -3 13 -3 18 0 11 3 -6 10 -9 16 -6 5 4 3 13 -6 23 -11 12 -12 20 -5 31 9
13 10 12 5 -2 -3 -10 -1 -20 3 -23 14 -8 23 82 12 104 -8 14 -7 22 4 31 18 15
19 36 3 44 -7 3 -4 4 7 3 17 -2 20 3 17 38 -4 47 4 44 11 -3 3 -19 9 -37 13
-40 4 -4 4 1 1 10 -3 10 -2 20 3 23 6 4 10 -1 10 -11 0 -12 3 -14 13 -6 6 6
17 11 22 12 6 1 12 4 15 7 3 2 0 3 -7 1 -6 -1 -11 2 -11 7 0 6 4 9 8 8 5 -1 7
5 5 15 -1 9 -8 16 -14 15 -14 -4 -14 14 0 22 5 4 9 17 8 28 -2 36 1 48 10 42
5 -3 7 -18 5 -32 -3 -15 -2 -25 1 -21 4 3 7 12 9 20 1 7 5 19 10 26 4 7 4 12
-1 11 -19 -3 -21 3 -11 32 6 16 8 32 6 35 -3 2 -43 -35 -89 -84z m74 49 c-3
-11 -14 -29 -24 -40 -11 -12 -15 -21 -9 -21 13 0 13 -37 0 -45 -18 -11 -12
-38 8 -31 15 5 15 4 -2 -8 -11 -9 -15 -20 -11 -28 6 -9 5 -10 -3 -3 -6 6 -12
29 -13 52 -2 26 -9 45 -17 48 -11 4 -12 8 -2 20 6 8 17 13 23 12 7 -1 11 4 9
11 -1 8 1 11 6 8 5 -3 14 6 20 19 14 30 22 33 15 6z m-66 -149 c-4 -24 -4 -24
-6 6 0 19 -5 31 -11 27 -6 -4 -7 1 -3 11 5 15 7 15 15 0 5 -9 7 -29 5 -44z
m-64 -167 c4 -8 3 -16 -1 -19 -4 -3 -9 4 -9 15 -2 23 3 25 10 4z m-29 -189
c-3 -15 -8 -25 -11 -23 -2 3 -1 17 3 31 3 15 8 25 11 23 2 -3 1 -17 -3 -31z
m-4 -45 c0 -6 -4 -12 -8 -15 -5 -3 -9 1 -9 9 0 8 4 15 9 15 4 0 8 -4 8 -9z
m-19 -54 c-10 -9 -11 -8 -5 6 3 10 9 15 12 12 3 -3 0 -11 -7 -18z m-4 -37 c1
-11 -2 -22 -8 -25 -5 -4 -6 2 -2 11 5 13 3 15 -8 9 -12 -8 -12 -6 0 8 17 21
16 21 18 -3z m1 -52 c-2 -6 -10 -13 -16 -14 -7 -1 -8 0 -2 3 5 2 8 9 4 14 -3
5 0 9 6 9 7 0 10 -5 8 -12z m-41 -50 c-3 -8 -6 -5 -6 6 -1 11 2 17 5 13 3 -3
4 -12 1 -19z m33 -3 c14 8 5 -24 -10 -38 -12 -10 -12 -9 -2 5 9 11 10 18 2 23
-5 3 -9 14 -9 23 1 15 2 15 6 -1 2 -9 8 -15 13 -12z m-20 -21 c0 -8 -19 -13
-24 -6 -3 5 1 9 9 9 8 0 15 -2 15 -3z m-3 -211 c-4 -3 -2 -12 4 -20 7 -8 8
-13 1 -13 -12 0 -23 26 -15 34 4 3 9 6 11 6 3 0 2 -3 -1 -7z m-17 -27 c0 -2
-7 -6 -15 -10 -8 -3 -15 -1 -15 4 0 6 7 10 15 10 8 0 15 -2 15 -4z m-4 -32
c-9 -8 -13 -20 -10 -26 4 -7 2 -8 -4 -4 -14 8 2 46 19 46 6 0 3 -7 -5 -16z
m31 -10 c-3 -3 -12 -4 -19 -1 -8 3 -5 6 6 6 11 1 17 -2 13 -5z m-26 -43 c7 11
9 10 9 -3 0 -10 -7 -16 -19 -15 -12 1 -17 6 -13 16 4 12 7 12 10 2 4 -11 6
-11 13 0z m-1 -36 c0 -2 -6 -8 -13 -14 -10 -8 -14 -7 -14 2 0 8 6 14 14 14 7
0 13 -1 13 -2z m17 -30 c-16 -13 -15 -38 2 -59 12 -14 12 -16 -3 -10 -9 3 -16
10 -16 16 0 5 -6 6 -12 2 -10 -6 -10 -4 0 7 14 15 16 33 3 24 -5 -3 -13 0 -17
6 -4 8 -3 9 4 5 7 -4 17 3 24 19 8 18 14 22 20 13 4 -8 2 -17 -5 -23z m-20
-153 c-10 -10 -16 -21 -15 -23 2 -2 1 -3 -1 -1 -3 1 -6 9 -7 17 -1 8 2 13 6
10 5 -3 11 -1 15 5 3 5 9 10 12 10 3 0 -1 -8 -10 -18z m-45 -44 c-8 -8 -9 -4
-5 13 4 13 8 18 11 10 2 -7 -1 -18 -6 -23z m-603 -1572 c81 -129 209 -314 320
-461 180 -238 335 -411 671 -745 283 -282 357 -362 409 -440 123 -184 208
-385 253 -597 l23 -108 3 -1842 c1 -1014 -1 -1843 -6 -1843 -16 0 -319 289
-436 416 -930 1007 -1467 2235 -1566 3584 -13 175 -13 661 0 826 31 406 104
819 206 1179 39 137 42 145 48 145 2 0 36 -51 75 -114z m956 -283 c-5 -10 -7
-22 -6 -26 1 -5 -3 -6 -9 -2 -8 5 -8 11 1 21 6 7 8 22 5 31 -6 14 -4 15 5 6 7
-7 9 -19 4 -30z m35 -102 c0 -6 -4 -12 -8 -15 -5 -3 -9 1 -9 9 0 8 4 15 9 15
4 0 8 -4 8 -9z m64 -248 c4 -10 4 -14 0 -10 -4 4 -14 1 -22 -6 -13 -11 -14 -9
-1 11 17 26 15 26 23 5z m35 -75 c-11 -40 -23 -52 -13 -14 5 19 2 31 -7 37
-11 7 -11 9 -1 9 8 0 10 5 6 13 -6 9 -4 9 8 -1 13 -10 14 -20 7 -44z m229
-473 c-3 -3 -9 2 -12 12 -6 14 -5 15 5 6 7 -7 10 -15 7 -18z m203 -272 c13
-16 12 -17 -3 -4 -10 7 -18 15 -18 17 0 8 8 3 21 -13z m140 -135 c-10 -11 -11
-9 -5 6 6 15 4 17 -6 11 -9 -6 -11 -4 -5 4 5 9 10 10 18 2 8 -8 7 -14 -2 -23z
m86 -42 c-3 -8 -3 -17 1 -20 10 -11 11 -37 1 -30 -5 3 -7 10 -4 15 4 5 -1 12
-10 15 -12 5 -13 9 -4 20 15 18 23 18 16 0z m153 -127 c0 -6 -4 -7 -10 -4 -5
3 -10 11 -10 16 0 6 5 7 10 4 6 -3 10 -11 10 -16z m41 -32 c-1 -12 -15 -9 -19
4 -3 6 1 10 8 8 6 -3 11 -8 11 -12z m204 -195 c-3 -3 2 -14 11 -24 14 -15 20
-16 32 -5 13 10 15 9 9 -6 -4 -10 -3 -16 2 -13 4 3 18 -6 31 -19 13 -13 27
-22 32 -18 6 3 5 -4 -1 -16 -12 -21 -22 -28 -20 -13 3 20 -2 25 -12 12 -8 -12
-9 -10 -4 7 5 18 3 22 -9 17 -9 -3 -13 -11 -9 -18 4 -6 -1 -5 -10 3 -9 7 -17
10 -17 6 0 -4 -7 -2 -15 5 -8 7 -13 16 -10 20 3 4 -3 14 -12 21 -15 12 -16 12
-9 -6 5 -15 4 -17 -5 -8 -6 6 -14 31 -16 55 l-5 43 21 -19 c12 -11 19 -21 16
-24z m182 -154 c-3 -8 -6 -5 -6 6 -1 11 2 17 5 13 3 -3 4 -12 1 -19z m43 -4
c0 -8 -4 -12 -10 -9 -5 3 -10 1 -10 -6 0 -7 -3 -9 -6 -6 -4 4 -1 13 6 22 16
19 20 19 20 -1z m2301 -377 c-10 -9 -11 -8 -5 6 3 10 9 15 12 12 3 -3 0 -11
-7 -18z m-218 -2 c4 -8 3 -16 -1 -19 -4 -3 -9 4 -9 15 -2 23 3 25 10 4z m387
-10 c0 -2 -6 -8 -13 -14 -10 -8 -14 -7 -14 2 0 8 6 14 14 14 7 0 13 -1 13 -2z"/>
<path d="M3616 9992 c-3 -6 1 -13 10 -16 8 -3 12 -10 9 -16 -3 -5 -1 -10 4
-10 6 0 11 6 11 14 0 18 -26 40 -34 28z"/>
<path d="M4923 5138 c1 -15 4 -25 8 -23 7 5 45 -34 41 -43 -4 -10 24 -10 39
-1 11 7 9 9 -7 9 -20 0 -67 42 -77 70 -3 8 -5 3 -4 -12z"/>
<path d="M3705 10049 c-4 -6 -5 -12 -2 -15 2 -3 7 2 10 11 7 17 1 20 -8 4z"/>
<path d="M3651 9814 c0 -11 3 -14 6 -6 3 7 2 16 -1 19 -3 4 -6 -2 -5 -13z"/>
<path d="M3576 9797 c-17 -12 -17 -14 1 -28 17 -13 17 -13 3 5 -13 18 -13 19
1 14 10 -4 16 -1 16 8 0 17 1 17 -21 1z"/>
<path d="M3555 9621 c-3 -5 -2 -12 3 -15 5 -3 9 1 9 9 0 17 -3 19 -12 6z"/>
<path d="M3451 9234 c0 -11 3 -14 6 -6 3 7 2 16 -1 19 -3 4 -6 -2 -5 -13z"/>
<path d="M3730 6926 c0 -2 7 -9 15 -16 13 -11 14 -10 9 4 -5 14 -24 23 -24 12z"/>
<path d="M3970 6239 c0 -4 5 -11 10 -14 8 -5 8 -11 1 -19 -8 -9 -7 -13 3 -13
8 0 17 9 19 19 3 11 1 16 -6 11 -6 -4 -8 0 -5 9 4 9 0 15 -8 15 -8 0 -14 -4
-14 -8z"/>
<path d="M4056 6073 c-6 -14 -5 -15 5 -6 7 7 10 15 7 18 -3 3 -9 -2 -12 -12z"/>
<path d="M4084 6026 c3 -31 19 -45 31 -27 4 7 0 8 -11 4 -10 -3 -15 -2 -12 3
3 5 2 18 -3 29 -7 16 -8 14 -5 -9z"/>
<path d="M4378 5678 c-7 -17 15 -19 29 -3 4 4 3 5 -4 2 -6 -4 -13 -2 -15 5 -3
8 -6 6 -10 -4z"/>
<path d="M4700 5322 c0 -5 7 -15 15 -22 8 -7 15 -8 15 -2 0 5 -7 15 -15 22 -8
7 -15 8 -15 2z"/>
<path d="M4764 5298 c3 -10 1 -18 -5 -18 -6 0 -7 -5 -4 -10 4 -6 10 -8 15 -5
8 5 28 -15 45 -47 5 -12 15 -21 20 -20 15 1 36 -19 30 -28 -3 -4 2 -13 10 -20
13 -11 15 -7 13 33 -3 41 -18 58 -18 19 0 -14 -2 -15 -10 -2 -6 10 -4 21 8 35
16 18 16 19 0 7 -14 -12 -19 -10 -32 15 -8 15 -15 23 -16 18 0 -6 7 -20 15
-32 13 -19 13 -22 -1 -27 -8 -3 -13 -2 -9 3 3 5 -1 15 -8 23 -7 7 -12 23 -11
34 1 15 -4 21 -15 19 -9 -1 -20 3 -24 9 -6 7 -7 4 -3 -6z m36 -29 c0 -6 -4 -7
-10 -4 -5 3 -10 11 -10 16 0 6 5 7 10 4 6 -3 10 -11 10 -16z"/>
<path d="M7716 4677 c3 -10 9 -15 12 -12 3 3 0 11 -7 18 -10 9 -11 8 -5 -6z"/>
<path d="M7651 4664 c0 -11 3 -14 6 -6 3 7 2 16 -1 19 -3 4 -6 -2 -5 -13z"/>
<path d="M7508 4649 c-4 -11 1 -15 18 -15 13 0 24 4 24 9 0 5 -6 7 -14 4 -8
-3 -16 -1 -19 6 -2 7 -6 5 -9 -4z"/>
<path d="M7326 4641 c-4 -6 -14 -8 -24 -5 -14 5 -14 4 -2 -4 9 -7 19 -7 25 -2
7 6 16 5 23 -2 7 -7 12 -8 12 -4 0 5 6 3 14 -3 18 -15 34 5 17 22 -9 9 -11 7
-6 -8 7 -20 6 -20 -9 -1 -10 13 -16 15 -16 7 0 -10 -3 -11 -14 -2 -9 8 -16 8
-20 2z"/>
<path d="M7437 4633 c3 -7 6 -13 8 -13 2 0 5 6 8 13 3 8 -1 14 -8 14 -7 0 -11
-6 -8 -14z"/>
</g>
</svg>
