<svg xmlns="http://www.w3.org/2000/svg" xmlns:xlink="http://www.w3.org/1999/xlink" version="1.1" width="1000" height="1000" viewBox="0 0 1000 1000" xml:space="preserve">
<desc>Created with Fabric.js 3.5.0</desc>
<defs>
</defs>
<rect x="0" y="0" width="100%" height="100%" fill="#ffffff"/>
<g transform="matrix(0.4998 0 0 0.4998 173.4033 826.5249)" id="638938">
<g style="" vector-effect="non-scaling-stroke">
		<g transform="matrix(1 0 0 1 -76.62 115.4)" id="path14" clip-path="url(#CLIPPATH_1)">
<clipPath id="CLIPPATH_1">
	<rect transform="matrix(1 0 0 1 -257.38 782.19)" id="rect4" x="-940.62" y="-587.89" rx="0" ry="0" width="1881.24" height="1175.78"/>
</clipPath>
<path style="stroke: rgb(177,124,129); stroke-width: 1.51; stroke-dasharray: none; stroke-linecap: butt; stroke-dashoffset: 0; stroke-linejoin: miter; stroke-miterlimit: 4; is-custom-font: none; font-file-url: none; fill: rgb(177,124,129); fill-rule: nonzero; opacity: 1;" transform=" translate(-179.38, -371.4)" d="M -42.82 358 l 245 24.8 l 199.4 2 Z" stroke-linecap="round"/>
</g>
		<g transform="matrix(1 0 0 1 36.99 115.395)" id="path16" clip-path="url(#CLIPPATH_2)">
<clipPath id="CLIPPATH_2">
	<rect transform="matrix(1 0 0 1 -370.99 782.195)" id="rect4" x="-940.62" y="-587.89" rx="0" ry="0" width="1881.24" height="1175.78"/>
</clipPath>
<path style="stroke: rgb(162,116,124); stroke-width: 1.51; stroke-dasharray: none; stroke-linecap: butt; stroke-dashoffset: 0; stroke-linejoin: miter; stroke-miterlimit: 4; is-custom-font: none; font-file-url: none; fill: rgb(162,116,124); fill-rule: nonzero; opacity: 1;" transform=" translate(-292.99, -371.395)" d="M -42.82 358 l 444.44 26.79 l 227.18 -2 Z" stroke-linecap="round"/>
</g>
		<g transform="matrix(1 0 0 1 259.21 197.195)" id="path18" clip-path="url(#CLIPPATH_3)">
<clipPath id="CLIPPATH_3">
	<rect transform="matrix(1 0 0 1 -593.21 700.395)" id="rect4" x="-940.62" y="-587.89" rx="0" ry="0" width="1881.24" height="1175.78"/>
</clipPath>
<path style="stroke: rgb(153,105,118); stroke-width: 1.51; stroke-dasharray: none; stroke-linecap: butt; stroke-dashoffset: 0; stroke-linejoin: miter; stroke-miterlimit: 4; is-custom-font: none; font-file-url: none; fill: rgb(153,105,118); fill-rule: nonzero; opacity: 1;" transform=" translate(-515.21, -453.195)" d="M 401.62 384.74 L 565.31 523.63 L 628.8 382.76 Z" stroke-linecap="round"/>
</g>
		<g transform="matrix(1 0 0 1 45.92 134.2)" id="path20" clip-path="url(#CLIPPATH_4)">
<clipPath id="CLIPPATH_4">
	<rect transform="matrix(1 0 0 1 -379.92 763.39)" id="rect4" x="-940.62" y="-587.89" rx="0" ry="0" width="1881.24" height="1175.78"/>
</clipPath>
<path style="stroke: rgb(170,120,126); stroke-width: 1.51; stroke-dasharray: none; stroke-linecap: butt; stroke-dashoffset: 0; stroke-linejoin: miter; stroke-miterlimit: 4; is-custom-font: none; font-file-url: none; fill: rgb(170,120,126); fill-rule: nonzero; opacity: 1;" transform=" translate(-301.92, -390.2)" d="M 202.22 382.76 l 54.56 14.88 l 144.84 -12.9 Z" stroke-linecap="round"/>
</g>
		<g transform="matrix(1 0 0 1 204.66 205.13)" id="path22" clip-path="url(#CLIPPATH_5)">
<clipPath id="CLIPPATH_5">
	<rect transform="matrix(1 0 0 1 -538.66 692.46)" id="rect4" x="-940.62" y="-587.89" rx="0" ry="0" width="1881.24" height="1175.78"/>
</clipPath>
<path style="stroke: rgb(178,119,126); stroke-width: 1.51; stroke-dasharray: none; stroke-linecap: butt; stroke-dashoffset: 0; stroke-linejoin: miter; stroke-miterlimit: 4; is-custom-font: none; font-file-url: none; fill: rgb(178,119,126); fill-rule: nonzero; opacity: 1;" transform=" translate(-460.66, -461.13)" d="M 401.62 384.74 L 356 537.52 l 209.32 -13.89 Z" stroke-linecap="round"/>
</g>
		<g transform="matrix(1 0 0 1 73.205 205.13)" id="path24" clip-path="url(#CLIPPATH_6)">
<clipPath id="CLIPPATH_6">
	<rect transform="matrix(1 0 0 1 -407.205 692.46)" id="rect4" x="-940.62" y="-587.89" rx="0" ry="0" width="1881.24" height="1175.78"/>
</clipPath>
<path style="stroke: rgb(178,122,127); stroke-width: 1.51; stroke-dasharray: none; stroke-linecap: butt; stroke-dashoffset: 0; stroke-linejoin: miter; stroke-miterlimit: 4; is-custom-font: none; font-file-url: none; fill: rgb(178,122,127); fill-rule: nonzero; opacity: 1;" transform=" translate(-329.205, -461.13)" d="M 256.78 397.64 L 356 537.52 l 45.63 -152.78 Z" stroke-linecap="round"/>
</g>
		<g transform="matrix(1 0 0 1 4.255 211.595)" id="path26" clip-path="url(#CLIPPATH_7)">
<clipPath id="CLIPPATH_7">
	<rect transform="matrix(1 0 0 1 -338.255 685.995)" id="rect4" x="-940.62" y="-587.89" rx="0" ry="0" width="1881.24" height="1175.78"/>
</clipPath>
<path style="stroke: rgb(199,132,133); stroke-width: 1.51; stroke-dasharray: none; stroke-linecap: butt; stroke-dashoffset: 0; stroke-linejoin: miter; stroke-miterlimit: 4; is-custom-font: none; font-file-url: none; fill: rgb(199,132,133); fill-rule: nonzero; opacity: 1;" transform=" translate(-260.255, -467.595)" d="M 256.78 397.64 L 164.52 533.55 l 191.47 4 Z" stroke-linecap="round"/>
</g>
		<g transform="matrix(1 0 0 1 -45.35 202.155)" id="path28" clip-path="url(#CLIPPATH_8)">
<clipPath id="CLIPPATH_8">
	<rect transform="matrix(1 0 0 1 -288.65 695.435)" id="rect4" x="-940.62" y="-587.89" rx="0" ry="0" width="1881.24" height="1175.78"/>
</clipPath>
<path style="stroke: rgb(192,129,132); stroke-width: 1.51; stroke-dasharray: none; stroke-linecap: butt; stroke-dashoffset: 0; stroke-linejoin: miter; stroke-miterlimit: 4; is-custom-font: none; font-file-url: none; fill: rgb(192,129,132); fill-rule: nonzero; opacity: 1;" transform=" translate(-210.65, -458.155)" d="M 202.22 382.76 l -37.7 150.79 l 92.26 -135.91 Z" stroke-linecap="round"/>
</g>
		<g transform="matrix(1 0 0 1 -176.3 189.775)" id="path30" clip-path="url(#CLIPPATH_9)">
<clipPath id="CLIPPATH_9">
	<rect transform="matrix(1 0 0 1 -157.7 707.815)" id="rect4" x="-940.62" y="-587.89" rx="0" ry="0" width="1881.24" height="1175.78"/>
</clipPath>
<path style="stroke: rgb(196,132,133); stroke-width: 1.51; stroke-dasharray: none; stroke-linecap: butt; stroke-dashoffset: 0; stroke-linejoin: miter; stroke-miterlimit: 4; is-custom-font: none; font-file-url: none; fill: rgb(196,132,133); fill-rule: nonzero; opacity: 1;" transform=" translate(-79.7, -445.775)" d="M -42.82 358 L 164.52 533.55 l 37.7 -150.79 Z" stroke-linecap="round"/>
</g>
		<g transform="matrix(1 0 0 1 -220.945 189.8)" id="path32" clip-path="url(#CLIPPATH_10)">
<clipPath id="CLIPPATH_10">
	<rect transform="matrix(1 0 0 1 -113.055 707.79)" id="rect4" x="-940.62" y="-587.89" rx="0" ry="0" width="1881.24" height="1175.78"/>
</clipPath>
<path style="stroke: rgb(213,139,136); stroke-width: 1.51; stroke-dasharray: none; stroke-linecap: butt; stroke-dashoffset: 0; stroke-linejoin: miter; stroke-miterlimit: 4; is-custom-font: none; font-file-url: none; fill: rgb(213,139,136); fill-rule: nonzero; opacity: 1;" transform=" translate(-35.055, -445.8)" d="M -42.82 358 l -51.59 137.9 l 258.93 37.7 Z" stroke-linecap="round"/>
</g>
		<g transform="matrix(1 0 0 1 -220.945 290.925)" id="path34" clip-path="url(#CLIPPATH_11)">
<clipPath id="CLIPPATH_11">
	<rect transform="matrix(1 0 0 1 -113.055 606.665)" id="rect4" x="-940.62" y="-587.89" rx="0" ry="0" width="1881.24" height="1175.78"/>
</clipPath>
<path style="stroke: rgb(224,151,144); stroke-width: 1.51; stroke-dasharray: none; stroke-linecap: butt; stroke-dashoffset: 0; stroke-linejoin: miter; stroke-miterlimit: 4; is-custom-font: none; font-file-url: none; fill: rgb(224,151,144); fill-rule: nonzero; opacity: 1;" transform=" translate(-35.055, -546.925)" d="M -94.41 495.85 L -33.89 598 l 198.41 -64.48 Z" stroke-linecap="round"/>
</g>
		<g transform="matrix(1 0 0 1 10.7186 -0.03)" id="path38" clip-path="url(#CLIPPATH_12)">
<clipPath id="CLIPPATH_12">
	<rect transform="matrix(1 0 0 1 -10.7187 0.0301)" id="rect7" x="-256" y="-256" rx="0" ry="0" width="512" height="512"/>
</clipPath>
<path style="stroke: none; stroke-width: 1; stroke-dasharray: none; stroke-linecap: butt; stroke-dashoffset: 0; stroke-linejoin: miter; stroke-miterlimit: 4; is-custom-font: none; font-file-url: none; fill: rgb(77,77,77); fill-rule: nonzero; opacity: 1;" transform=" translate(-266.7187, -255.9699)" d="m 438.48 152 c -1.36647 0.0146 -2.635 -0.70753 -3.32 -1.89 L 377.39 49.94 C 376.67452 48.754034 375.38499 48.035096 374 48.05 H 138.33 c -1.37003 -0.01824 -2.64324 0.704388 -3.33 1.89 L 75 153.89 L 19.17 254.09 c -0.670238 1.18514 -0.670238 2.63486 0 3.82 L 75 358 L 135 462 c 0.685 1.18247 1.95353 1.90461 3.32 1.89 H 374 c 1.37433 0.004 2.64999 -0.71328 3.36 -1.89 L 435.2 361.9 c 0.685 -1.18247 1.95353 -1.90461 3.32 -1.89 h 71.93 c 2.38587 0 4.32 -1.93413 4.32 -4.32 V 156.32 c 0 -2.38587 -1.93413 -4.32 -4.32 -4.32 h -72 z" stroke-linecap="round"/>
</g>
		<g transform="matrix(1 0 0 1 10.2142 0)" id="path27674" clip-path="url(#CLIPPATH_13)">
<clipPath id="CLIPPATH_13">
	<rect transform="matrix(1 0 0 1 -10.2143 0)" id="rect7" x="-256" y="-256" rx="0" ry="0" width="512" height="512"/>
</clipPath>
<path style="stroke: none; stroke-width: 1; stroke-dasharray: none; stroke-linecap: butt; stroke-dashoffset: 0; stroke-linejoin: miter; stroke-miterlimit: 4; is-custom-font: none; font-file-url: none; fill: rgb(226,226,226); fill-rule: nonzero; opacity: 1;" transform=" translate(-266.2143, -256)" d="M 72.85 157.64 L 17.658505 256.00902 L 23.53 268.94 L 78.375 358.53222 L 114.19 360 L 401.46 359.98 H 461 L 499.26418 350.30026 L 514.76 307.49 L 514.77 258.13 V 212.41 L 510.46 152 h -71.98 l -22.11 0.01 H 367.16 H 147.94 l -75.09 5.63" stroke-linecap="round"/>
</g>
		<g transform="matrix(1 0 0 1 9.7111 0)" id="path40" clip-path="url(#CLIPPATH_14)">
<clipPath id="CLIPPATH_14">
	<rect transform="matrix(1 0 0 1 -9.7111 0)" id="rect7" x="-256" y="-256" rx="0" ry="0" width="512" height="512"/>
</clipPath>
<path style="stroke: none; stroke-width: 1; stroke-dasharray: none; stroke-linecap: butt; stroke-dashoffset: 0; stroke-linejoin: miter; stroke-miterlimit: 4; is-custom-font: none; font-file-url: none; fill: none; fill-rule: nonzero; opacity: 1;" transform=" translate(-265.7111, -256)" d="M 510.46 152 H 78.34 A 3.91 3.91 0 0 0 75 153.89 s 0 0.07 0 0.07 l -2.14 3.69 L 46.41 203.48 L 17.18 254.11 a 3.8 3.8 0 0 0 0 3.83 l 6.35 11 L 75 358.06 A 3.84 3.84 0 0 0 78.34 360 H 510.52 a 4.27 4.27 0 0 0 4.24 -4.28 V 156.34 A 4.32 4.32 0 0 0 510.46 152 Z" stroke-linecap="round"/>
</g>
		<g transform="matrix(1 0 0 1 -203.6189 -19.79)" id="path42" clip-path="url(#CLIPPATH_15)">
<clipPath id="CLIPPATH_15">
	<rect transform="matrix(1 0 0 1 203.6189 19.79)" id="rect7" x="-256" y="-256" rx="0" ry="0" width="512" height="512"/>
</clipPath>
<path style="stroke: none; stroke-width: 1; stroke-dasharray: none; stroke-linecap: butt; stroke-dashoffset: 0; stroke-linejoin: miter; stroke-miterlimit: 4; is-custom-font: none; font-file-url: none; fill: rgb(225,225,225); fill-rule: nonzero; opacity: 1;" transform=" translate(-52.3811, -236.21)" d="M 88.1 245.5 L 23.53 268.94 l -6.35 -11 a 3.8 3.8 0 0 1 0 -3.83 l 29.23 -50.63 Z" stroke-linecap="round"/>
</g>
		<g transform="matrix(1 0 0 1 237.49 26.81)" id="polygon44" clip-path="url(#CLIPPATH_16)">
<clipPath id="CLIPPATH_16">
	<rect transform="matrix(1 0 0 1 -237.49 -26.81)" id="rect7" x="-256" y="-256" rx="0" ry="0" width="512" height="512"/>
</clipPath>
<polygon style="stroke: none; stroke-width: 1; stroke-dasharray: none; stroke-linecap: butt; stroke-dashoffset: 0; stroke-linejoin: miter; stroke-miterlimit: 4; is-custom-font: none; font-file-url: none; fill: rgb(200,200,200); fill-rule: nonzero; opacity: 1;" points="-21.28,-18.6 21.28,-24.68 21.28,24.68 -21.28,-18.6 "/>
</g>
		<g transform="matrix(1 0 0 1 231.88 56.095)" id="path46" clip-path="url(#CLIPPATH_17)">
<clipPath id="CLIPPATH_17">
	<rect transform="matrix(1 0 0 1 -231.88 -56.095)" id="rect7" x="-256" y="-256" rx="0" ry="0" width="512" height="512"/>
</clipPath>
<path style="stroke: none; stroke-width: 1; stroke-dasharray: none; stroke-linecap: butt; stroke-dashoffset: 0; stroke-linejoin: miter; stroke-miterlimit: 4; is-custom-font: none; font-file-url: none; fill: rgb(194,194,194); fill-rule: nonzero; opacity: 1;" transform=" translate(-487.88, -312.095)" d="M 472.21 264.21 l 42.55 43.28 V 355.7 a 4.27 4.27 0 0 1 -4.24 4.28 H 461 Z" stroke-linecap="round"/>
</g>
		<g transform="matrix(1 0 0 1 171.815 56.095)" id="polygon48" clip-path="url(#CLIPPATH_18)">
<clipPath id="CLIPPATH_18">
	<rect transform="matrix(1 0 0 1 -171.815 -56.095)" id="rect7" x="-256" y="-256" rx="0" ry="0" width="512" height="512"/>
</clipPath>
<polygon style="stroke: none; stroke-width: 1; stroke-dasharray: none; stroke-linecap: butt; stroke-dashoffset: 0; stroke-linejoin: miter; stroke-miterlimit: 4; is-custom-font: none; font-file-url: none; fill: rgb(199,199,199); fill-rule: nonzero; opacity: 1;" points="44.395,-47.885 33.185,47.885 -26.355,47.885 -44.395,4.435 44.395,-47.885 "/>
</g>
		<g transform="matrix(1 0 0 1 237.49 -17.69)" id="polygon50" clip-path="url(#CLIPPATH_19)">
<clipPath id="CLIPPATH_19">
	<rect transform="matrix(1 0 0 1 -237.49 17.69)" id="rect7" x="-256" y="-256" rx="0" ry="0" width="512" height="512"/>
</clipPath>
<polygon style="stroke: none; stroke-width: 1; stroke-dasharray: none; stroke-linecap: butt; stroke-dashoffset: 0; stroke-linejoin: miter; stroke-miterlimit: 4; is-custom-font: none; font-file-url: none; fill: rgb(206,206,206); fill-rule: nonzero; opacity: 1;" points="-21.28,25.9 21.28,-25.9 21.28,19.82 -21.28,25.9 "/>
</g>
		<g transform="matrix(1 0 0 1 221.445 -47.895)" id="path52" clip-path="url(#CLIPPATH_20)">
<clipPath id="CLIPPATH_20">
	<rect transform="matrix(1 0 0 1 -221.445 47.895)" id="rect7" x="-256" y="-256" rx="0" ry="0" width="512" height="512"/>
</clipPath>
<path style="stroke: none; stroke-width: 1; stroke-dasharray: none; stroke-linecap: butt; stroke-dashoffset: 0; stroke-linejoin: miter; stroke-miterlimit: 4; is-custom-font: none; font-file-url: none; fill: rgb(211,211,211); fill-rule: nonzero; opacity: 1;" transform=" translate(-477.445, -208.105)" d="M 514.77 156.33 v 56.08 l -42.55 51.8 L 440.12 152 h 70.33 A 4.32 4.32 0 0 1 514.77 156.33 Z" stroke-linecap="round"/>
</g>
		<g transform="matrix(1 0 0 1 125.69 82.255)" id="polygon54" clip-path="url(#CLIPPATH_21)">
<clipPath id="CLIPPATH_21">
	<rect transform="matrix(1 0 0 1 -125.69 -82.255)" id="rect7" x="-256" y="-256" rx="0" ry="0" width="512" height="512"/>
</clipPath>
<polygon style="stroke: none; stroke-width: 1; stroke-dasharray: none; stroke-linecap: butt; stroke-dashoffset: 0; stroke-linejoin: miter; stroke-miterlimit: 4; is-custom-font: none; font-file-url: none; fill: rgb(198,198,198); fill-rule: nonzero; opacity: 1;" points="19.77,21.725 -11.63,21.725 -19.77,10.055 1.73,-21.725 19.77,21.725 "/>
</g>
		<g transform="matrix(1 0 0 1 157.315 -47.89)" id="polygon56" clip-path="url(#CLIPPATH_22)">
<clipPath id="CLIPPATH_22">
	<rect transform="matrix(1 0 0 1 -157.315 47.89)" id="rect7" x="-256" y="-256" rx="0" ry="0" width="512" height="512"/>
</clipPath>
<polygon style="stroke: none; stroke-width: 1; stroke-dasharray: none; stroke-linecap: butt; stroke-dashoffset: 0; stroke-linejoin: miter; stroke-miterlimit: 4; is-custom-font: none; font-file-url: none; fill: rgb(213,213,213); fill-rule: nonzero; opacity: 1;" points="58.895,56.1 -58.895,6.31 3.055,-56.1 26.805,-56.1 58.895,56.1 "/>
</g>
		<g transform="matrix(1 0 0 1 157.32 9.475)" id="path58" clip-path="url(#CLIPPATH_23)">
<clipPath id="CLIPPATH_23">
	<rect transform="matrix(1 0 0 1 -157.32 -9.475)" id="rect7" x="-256" y="-256" rx="0" ry="0" width="512" height="512"/>
</clipPath>
<path style="stroke: none; stroke-width: 1; stroke-dasharray: none; stroke-linecap: butt; stroke-dashoffset: 0; stroke-linejoin: miter; stroke-miterlimit: 4; is-custom-font: none; font-file-url: none; fill: rgb(208,208,208); fill-rule: nonzero; opacity: 1;" transform=" translate(-413.32, -265.475)" d="M 354.42 214.42 l 29 102.11 l 88.8 -52.32 Z" stroke-linecap="round"/>
</g>
		<g transform="matrix(1 0 0 1 109.8 98.145)" id="polygon60" clip-path="url(#CLIPPATH_24)">
<clipPath id="CLIPPATH_24">
	<rect transform="matrix(1 0 0 1 -109.8 -98.145)" id="rect7" x="-256" y="-256" rx="0" ry="0" width="512" height="512"/>
</clipPath>
<polygon style="stroke: none; stroke-width: 1; stroke-dasharray: none; stroke-linecap: butt; stroke-dashoffset: 0; stroke-linejoin: miter; stroke-miterlimit: 4; is-custom-font: none; font-file-url: none; fill: rgb(191,191,191); fill-rule: nonzero; opacity: 1;" points="4.26,5.835 -4.26,5.835 -3.88,-5.835 4.26,5.835 "/>
</g>
		<g transform="matrix(1 0 0 1 123.805 -72.785)" id="polygon62" clip-path="url(#CLIPPATH_25)">
<clipPath id="CLIPPATH_25">
	<rect transform="matrix(1 0 0 1 -123.805 72.785)" id="rect7" x="-256" y="-256" rx="0" ry="0" width="512" height="512"/>
</clipPath>
<polygon style="stroke: none; stroke-width: 1; stroke-dasharray: none; stroke-linecap: butt; stroke-dashoffset: 0; stroke-linejoin: miter; stroke-miterlimit: 4; is-custom-font: none; font-file-url: none; fill: rgb(217,217,217); fill-rule: nonzero; opacity: 1;" points="36.565,-31.205 -25.385,31.205 -36.565,-24.615 -12.645,-31.205 36.565,-31.205 "/>
</g>
		<g transform="matrix(1 0 0 1 30.67 25.365)" id="path64" clip-path="url(#CLIPPATH_26)">
<clipPath id="CLIPPATH_26">
	<rect transform="matrix(1 0 0 1 -30.67 -25.365)" id="rect7" x="-256" y="-256" rx="0" ry="0" width="512" height="512"/>
</clipPath>
<path style="stroke: none; stroke-width: 1; stroke-dasharray: none; stroke-linecap: butt; stroke-dashoffset: 0; stroke-linejoin: miter; stroke-miterlimit: 4; is-custom-font: none; font-file-url: none; fill: rgb(212,212,212); fill-rule: nonzero; opacity: 1;" transform=" translate(-286.67, -281.365)" d="M 354.42 214.42 l -143 33 L 361.92 348.31 Z" stroke-linecap="round"/>
</g>
		<g transform="matrix(1 0 0 1 112.915 25.37)" id="path66" clip-path="url(#CLIPPATH_27)">
<clipPath id="CLIPPATH_27">
	<rect transform="matrix(1 0 0 1 -112.915 -25.37)" id="rect7" x="-256" y="-256" rx="0" ry="0" width="512" height="512"/>
</clipPath>
<path style="stroke: none; stroke-width: 1; stroke-dasharray: none; stroke-linecap: butt; stroke-dashoffset: 0; stroke-linejoin: miter; stroke-miterlimit: 4; is-custom-font: none; font-file-url: none; fill: rgb(208,208,208); fill-rule: nonzero; opacity: 1;" transform=" translate(-368.915, -281.37)" d="M 354.42 214.42 l 7.49 133.9 l 21.5 -31.78 Z" stroke-linecap="round"/>
</g>
		<g transform="matrix(1 0 0 1 26.97 -53.005)" id="path68" clip-path="url(#CLIPPATH_28)">
<clipPath id="CLIPPATH_28">
	<rect transform="matrix(1 0 0 1 -26.97 53.005)" id="rect7" x="-256" y="-256" rx="0" ry="0" width="512" height="512"/>
</clipPath>
<path style="stroke: none; stroke-width: 1; stroke-dasharray: none; stroke-linecap: butt; stroke-dashoffset: 0; stroke-linejoin: miter; stroke-miterlimit: 4; is-custom-font: none; font-file-url: none; fill: rgb(217,217,217); fill-rule: nonzero; opacity: 1;" transform=" translate(-282.97, -202.995)" d="M 343.24 158.6 L 211.47 247.39 l 143 -33 Z" stroke-linecap="round"/>
</g>
		<g transform="matrix(1 0 0 1 -106.215 46.74)" id="polygon70" clip-path="url(#CLIPPATH_29)">
<clipPath id="CLIPPATH_29">
	<rect transform="matrix(1 0 0 1 106.215 -46.74)" id="rect7" x="-256" y="-256" rx="0" ry="0" width="512" height="512"/>
</clipPath>
<polygon style="stroke: none; stroke-width: 1; stroke-dasharray: none; stroke-linecap: butt; stroke-dashoffset: 0; stroke-linejoin: miter; stroke-miterlimit: 4; is-custom-font: none; font-file-url: none; fill: rgb(216,216,216); fill-rule: nonzero; opacity: 1;" points="61.685,-55.35 -0.285,57.24 -35.595,57.24 -61.685,-57.24 61.685,-55.35 "/>
</g>
		<g transform="matrix(1 0 0 1 -145.605 -57.25)" id="path72" clip-path="url(#CLIPPATH_30)">
<clipPath id="CLIPPATH_30">
	<rect transform="matrix(1 0 0 1 145.605 57.25)" id="rect7" x="-256" y="-256" rx="0" ry="0" width="512" height="512"/>
</clipPath>
<path style="stroke: none; stroke-width: 1; stroke-dasharray: none; stroke-linecap: butt; stroke-dashoffset: 0; stroke-linejoin: miter; stroke-miterlimit: 4; is-custom-font: none; font-file-url: none; fill: rgb(226,226,226); fill-rule: nonzero; opacity: 1;" transform=" translate(-110.395, -198.75)" d="M 147.94 152 L 88.1 245.5 L 72.85 157.64 L 75 153.94 s 0 -0.07 0 -0.07 A 3.91 3.91 0 0 1 78.33 152 h 69.61 Z" stroke-linecap="round"/>
</g>
		<g transform="matrix(1 0 0 1 -187.14 46.75)" id="path74" clip-path="url(#CLIPPATH_31)">
<clipPath id="CLIPPATH_31">
	<rect transform="matrix(1 0 0 1 187.14 -46.75)" id="rect7" x="-256" y="-256" rx="0" ry="0" width="512" height="512"/>
</clipPath>
<path style="stroke: none; stroke-width: 1; stroke-dasharray: none; stroke-linecap: butt; stroke-dashoffset: 0; stroke-linejoin: miter; stroke-miterlimit: 4; is-custom-font: none; font-file-url: none; fill: rgb(216,216,216); fill-rule: nonzero; opacity: 1;" transform=" translate(-68.86, -302.75)" d="M 114.19 360 H 78.33 A 3.84 3.84 0 0 1 75 358 L 23.53 268.94 L 88.1 245.5 Z" stroke-linecap="round"/>
</g>
		<g transform="matrix(1 0 0 1 -188.745 -54.43)" id="polygon76" clip-path="url(#CLIPPATH_32)">
<clipPath id="CLIPPATH_32">
	<rect transform="matrix(1 0 0 1 188.745 54.43)" id="rect7" x="-256" y="-256" rx="0" ry="0" width="512" height="512"/>
</clipPath>
<polygon style="stroke: none; stroke-width: 1; stroke-dasharray: none; stroke-linecap: butt; stroke-dashoffset: 0; stroke-linejoin: miter; stroke-miterlimit: 4; is-custom-font: none; font-file-url: none; fill: rgb(228,228,228); fill-rule: nonzero; opacity: 1;" points="-20.845,1.9 5.595,-43.93 20.845,43.93 "/>
</g>
		<g transform="matrix(1 0 0 1 1.815 -56.3)" id="polygon78" clip-path="url(#CLIPPATH_33)">
<clipPath id="CLIPPATH_33">
	<rect transform="matrix(1 0 0 1 -1.815 56.3)" id="rect7" x="-256" y="-256" rx="0" ry="0" width="512" height="512"/>
</clipPath>
<polygon style="stroke: none; stroke-width: 1; stroke-dasharray: none; stroke-linecap: butt; stroke-dashoffset: 0; stroke-linejoin: miter; stroke-miterlimit: 4; is-custom-font: none; font-file-url: none; fill: rgb(222,222,222); fill-rule: nonzero; opacity: 1;" points="18.955,-47.69 -22.285,-47.69 -85.425,-47.69 -46.345,47.69 85.425,-41.1 45.705,-47.69 18.955,-47.69 "/>
</g>
		<g transform="matrix(1 0 0 1 -106.215 -56.3)" id="polygon80" clip-path="url(#CLIPPATH_34)">
<clipPath id="CLIPPATH_34">
	<rect transform="matrix(1 0 0 1 106.215 56.3)" id="rect7" x="-256" y="-256" rx="0" ry="0" width="512" height="512"/>
</clipPath>
<polygon style="stroke: none; stroke-width: 1; stroke-dasharray: none; stroke-linecap: butt; stroke-dashoffset: 0; stroke-linejoin: miter; stroke-miterlimit: 4; is-custom-font: none; font-file-url: none; fill: rgb(222,222,222); fill-rule: nonzero; opacity: 1;" points="6.305,-47.69 -1.845,-47.69 -61.685,45.8 61.685,47.69 22.605,-47.69 6.305,-47.69 "/>
</g>
		<g transform="matrix(1 0 0 1 91.575 98.145)" id="polygon82" clip-path="url(#CLIPPATH_35)">
<clipPath id="CLIPPATH_35">
	<rect transform="matrix(1 0 0 1 -91.575 -98.145)" id="rect7" x="-256" y="-256" rx="0" ry="0" width="512" height="512"/>
</clipPath>
<polygon style="stroke: none; stroke-width: 1; stroke-dasharray: none; stroke-linecap: butt; stroke-dashoffset: 0; stroke-linejoin: miter; stroke-miterlimit: 4; is-custom-font: none; font-file-url: none; fill: rgb(197,197,197); fill-rule: nonzero; opacity: 1;" points="-14.345,5.835 8.645,5.835 13.965,5.835 14.345,-5.835 -14.345,5.835 "/>
</g>
		<g transform="matrix(1 0 0 1 30.695 47.685)" id="polygon84" clip-path="url(#CLIPPATH_36)">
<clipPath id="CLIPPATH_36">
	<rect transform="matrix(1 0 0 1 -30.695 -47.685)" id="rect7" x="-256" y="-256" rx="0" ry="0" width="512" height="512"/>
</clipPath>
<polygon style="stroke: none; stroke-width: 1; stroke-dasharray: none; stroke-linecap: butt; stroke-dashoffset: 0; stroke-linejoin: miter; stroke-miterlimit: 4; is-custom-font: none; font-file-url: none; fill: rgb(208,208,208); fill-rule: nonzero; opacity: 1;" points="75.225,44.625 -75.225,-56.295 -48.125,56.295 -9.925,56.295 46.535,56.295 75.225,44.625 "/>
</g>
		<g transform="matrix(1 0 0 1 -61.965 47.685)" id="polygon86" clip-path="url(#CLIPPATH_37)">
<clipPath id="CLIPPATH_37">
	<rect transform="matrix(1 0 0 1 61.965 -47.685)" id="rect7" x="-256" y="-256" rx="0" ry="0" width="512" height="512"/>
</clipPath>
<polygon style="stroke: none; stroke-width: 1; stroke-dasharray: none; stroke-linecap: butt; stroke-dashoffset: 0; stroke-linejoin: miter; stroke-miterlimit: 4; is-custom-font: none; font-file-url: none; fill: rgb(209,209,209); fill-rule: nonzero; opacity: 1;" points="-44.535,56.295 -37.945,56.295 41.495,56.295 44.535,56.295 17.435,-56.295 -44.535,56.295 "/>
</g>
		<g transform="matrix(1 0 0 1 99.2 -100.695)" id="polygon88" clip-path="url(#CLIPPATH_38)">
<clipPath id="CLIPPATH_38">
	<rect transform="matrix(1 0 0 1 -99.2 100.695)" id="rect7" x="-256" y="-256" rx="0" ry="0" width="512" height="512"/>
</clipPath>
<polygon style="stroke: none; stroke-width: 1; stroke-dasharray: none; stroke-linecap: butt; stroke-dashoffset: 0; stroke-linejoin: miter; stroke-miterlimit: 4; is-custom-font: none; font-file-url: none; fill: rgb(221,221,221); fill-rule: nonzero; opacity: 1;" points="-11.55,-3.295 -11.96,3.295 11.96,-3.295 1.02,-3.295 -11.55,-3.295 "/>
</g>
		<g transform="matrix(1 0 0 1 67.38 -100.695)" id="polygon90" clip-path="url(#CLIPPATH_39)">
<clipPath id="CLIPPATH_39">
	<rect transform="matrix(1 0 0 1 -67.38 100.695)" id="rect7" x="-256" y="-256" rx="0" ry="0" width="512" height="512"/>
</clipPath>
<polygon style="stroke: none; stroke-width: 1; stroke-dasharray: none; stroke-linecap: butt; stroke-dashoffset: 0; stroke-linejoin: miter; stroke-miterlimit: 4; is-custom-font: none; font-file-url: none; fill: rgb(227,227,227); fill-rule: nonzero; opacity: 1;" points="-19.86,-3.295 19.86,3.295 16.2,-3.295 -19.86,-3.295 "/>
</g>
		<g transform="matrix(1 0 0 1 85.615 -100.695)" id="polygon92" clip-path="url(#CLIPPATH_40)">
<clipPath id="CLIPPATH_40">
	<rect transform="matrix(1 0 0 1 -85.615 100.695)" id="rect7" x="-256" y="-256" rx="0" ry="0" width="512" height="512"/>
</clipPath>
<polygon style="stroke: none; stroke-width: 1; stroke-dasharray: none; stroke-linecap: butt; stroke-dashoffset: 0; stroke-linejoin: miter; stroke-miterlimit: 4; is-custom-font: none; font-file-url: none; fill: rgb(226,226,226); fill-rule: nonzero; opacity: 1;" points="-2.035,-3.295 1.625,3.295 2.035,-3.295 -2.035,-3.295 "/>
</g>
		<g transform="matrix(1 0 0 1 -70.1831 -68.99)" id="path94" clip-path="url(#CLIPPATH_41)">
<clipPath id="CLIPPATH_41">
	<rect transform="matrix(1 0 0 1 70.1831 68.99)" id="rect7" x="-256" y="-256" rx="0" ry="0" width="512" height="512"/>
</clipPath>
<path style="stroke: none; stroke-width: 1; stroke-dasharray: none; stroke-linecap: butt; stroke-dashoffset: 0; stroke-linejoin: miter; stroke-miterlimit: 4; is-custom-font: none; font-file-url: none; fill: rgb(0,184,227); fill-rule: nonzero; opacity: 1;" transform=" translate(-185.8169, -187.01)" d="M 235.15 153.81 L 177 254.46 a 3.38 3.38 0 0 0 -0.42 1.64 H 136.07 l 79.74 -138.18 a 3.14 3.14 0 0 1 1.19 1.15 l 0.11 0.11 l 18.08 31.41 A 3.49 3.49 0 0 1 235.15 153.81 Z" stroke-linecap="round"/>
</g>
		<g transform="matrix(1 0 0 1 -70.2361 69.225)" id="path96" clip-path="url(#CLIPPATH_42)">
<clipPath id="CLIPPATH_42">
	<rect transform="matrix(1 0 0 1 70.2361 -69.225)" id="rect7" x="-256" y="-256" rx="0" ry="0" width="512" height="512"/>
</clipPath>
<path style="stroke: none; stroke-width: 1; stroke-dasharray: none; stroke-linecap: butt; stroke-dashoffset: 0; stroke-linejoin: miter; stroke-miterlimit: 4; is-custom-font: none; font-file-url: none; fill: rgb(51,198,233); fill-rule: nonzero; opacity: 1;" transform=" translate(-185.7639, -325.225)" d="M 235.08 361.89 l -18 31.27 a 3.51 3.51 0 0 1 -1.22 1.15 L 136 256.14 v 0 H 176.6 a 3.09 3.09 0 0 0 0.38 1.57 a 0.37 0.37 0 0 0 0.07 0.17 l 58 100.58 A 3.41 3.41 0 0 1 235.08 361.89 Z" stroke-linecap="round"/>
</g>
		<g transform="matrix(1 0 0 1 -99.8005 -51.8652)" id="path98" clip-path="url(#CLIPPATH_43)">
<clipPath id="CLIPPATH_43">
	<rect transform="matrix(1 0 0 1 99.8006 51.8651)" id="rect7" x="-256" y="-256" rx="0" ry="0" width="512" height="512"/>
</clipPath>
<path style="stroke: none; stroke-width: 1; stroke-dasharray: none; stroke-linecap: butt; stroke-dashoffset: 0; stroke-linejoin: miter; stroke-miterlimit: 4; is-custom-font: none; font-file-url: none; fill: rgb(0,138,170); fill-rule: nonzero; opacity: 1;" transform=" translate(-156.1994, -204.1349)" d="M 215.81 117.92 L 136.07 256.1 h 0 v 0 l -20 34.66 l -19.1 -33.12 a 3.09 3.09 0 0 1 -0.38 -1.57 a 3.38 3.38 0 0 1 0.42 -1.64 L 116.31 221 l 58.75 -101.74 a 3.4 3.4 0 0 1 3 -1.75 H 214.1 A 3.58 3.58 0 0 1 215.81 117.92 Z" stroke-linecap="round"/>
</g>
		<g transform="matrix(1 0 0 1 -90.095 69.4451)" id="path100" clip-path="url(#CLIPPATH_44)">
<clipPath id="CLIPPATH_44">
	<rect transform="matrix(1 0 0 1 90.095 -69.4451)" id="rect7" x="-256" y="-256" rx="0" ry="0" width="512" height="512"/>
</clipPath>
<path style="stroke: none; stroke-width: 1; stroke-dasharray: none; stroke-linecap: butt; stroke-dashoffset: 0; stroke-linejoin: miter; stroke-miterlimit: 4; is-custom-font: none; font-file-url: none; fill: rgb(0,184,227); fill-rule: nonzero; opacity: 1;" transform=" translate(-165.905, -325.4451)" d="M 215.81 394.31 a 3.58 3.58 0 0 1 -1.71 0.45 H 178 a 3.4 3.4 0 0 1 -3 -1.75 l -53.72 -93 L 116 290.79 l 20 -34.66 Z" stroke-linecap="round"/>
</g>
		<g transform="matrix(1 0 0 1 70.3982 69.205)" id="path102" clip-path="url(#CLIPPATH_45)">
<clipPath id="CLIPPATH_45">
	<rect transform="matrix(1 0 0 1 -70.3982 -69.205)" id="rect7" x="-256" y="-256" rx="0" ry="0" width="512" height="512"/>
</clipPath>
<path style="stroke: none; stroke-width: 1; stroke-dasharray: none; stroke-linecap: butt; stroke-dashoffset: 0; stroke-linejoin: miter; stroke-miterlimit: 4; is-custom-font: none; font-file-url: none; fill: rgb(0,138,170); fill-rule: nonzero; opacity: 1;" transform=" translate(-326.3982, -325.205)" d="M 376.19 256.1 L 296.39 394.31 a 3.73 3.73 0 0 1 -1.19 -1.15 l -0.07 -0.1 L 277 361.72 a 3.49 3.49 0 0 1 0 -3.22 l 58.06 -100.65 a 3.38 3.38 0 0 0 0.49 -1.75 h 40.57 Z" stroke-linecap="round"/>
</g>
		<g transform="matrix(1 0 0 1 100.045 52.125)" id="path104" clip-path="url(#CLIPPATH_46)">
<clipPath id="CLIPPATH_46">
	<rect transform="matrix(1 0 0 1 -100.045 -52.125)" id="rect7" x="-256" y="-256" rx="0" ry="0" width="512" height="512"/>
</clipPath>
<path style="stroke: none; stroke-width: 1; stroke-dasharray: none; stroke-linecap: butt; stroke-dashoffset: 0; stroke-linejoin: miter; stroke-miterlimit: 4; is-custom-font: none; font-file-url: none; fill: rgb(0,184,227); fill-rule: nonzero; opacity: 1;" transform=" translate(-356.045, -308.125)" d="M 415.68 256.1 a 3.38 3.38 0 0 1 -0.49 1.75 L 337.06 393.16 a 3.42 3.42 0 0 1 -2.9 1.61 h -36 a 3.72 3.72 0 0 1 -1.75 -0.45 L 376.19 256.1 l 20 -34.62 l 19 32.91 A 3.35 3.35 0 0 1 415.68 256.1 Z" stroke-linecap="round"/>
</g>
		<g transform="matrix(1 0 0 1 70.4293 -68.985)" id="path106" clip-path="url(#CLIPPATH_47)">
<clipPath id="CLIPPATH_47">
	<rect transform="matrix(1 0 0 1 -70.4293 68.985)" id="rect7" x="-256" y="-256" rx="0" ry="0" width="512" height="512"/>
</clipPath>
<path style="stroke: none; stroke-width: 1; stroke-dasharray: none; stroke-linecap: butt; stroke-dashoffset: 0; stroke-linejoin: miter; stroke-miterlimit: 4; is-custom-font: none; font-file-url: none; fill: rgb(0,184,227); fill-rule: nonzero; opacity: 1;" transform=" translate(-326.4293, -187.015)" d="M 376.19 256.1 H 335.63 a 3.35 3.35 0 0 0 -0.49 -1.71 l -58 -100.55 a 3.41 3.41 0 0 1 0 -3.46 l 18.08 -31.3 a 3.73 3.73 0 0 1 1.19 -1.15 Z" stroke-linecap="round"/>
</g>
		<g transform="matrix(1 0 0 1 90.295 -69.235)" id="path108" clip-path="url(#CLIPPATH_48)">
<clipPath id="CLIPPATH_48">
	<rect transform="matrix(1 0 0 1 -90.295 69.235)" id="rect7" x="-256" y="-256" rx="0" ry="0" width="512" height="512"/>
</clipPath>
<path style="stroke: none; stroke-width: 1; stroke-dasharray: none; stroke-linecap: butt; stroke-dashoffset: 0; stroke-linejoin: miter; stroke-miterlimit: 4; is-custom-font: none; font-file-url: none; fill: rgb(51,198,233); fill-rule: nonzero; opacity: 1;" transform=" translate(-346.295, -186.765)" d="M 396.2 221.44 v 0 l -20 34.62 L 296.39 117.92 a 3.72 3.72 0 0 1 1.75 -0.45 h 36 a 3.42 3.42 0 0 1 2.9 1.61 Z" stroke-linecap="round"/>
</g>
</g>
</g>
</svg>