<?xml version="1.0" standalone="no"?>
<!DOCTYPE svg PUBLIC "-//W3C//DTD SVG 20010904//EN"
 "http://www.w3.org/TR/2001/REC-SVG-20010904/DTD/svg10.dtd">
<svg version="1.0" xmlns="http://www.w3.org/2000/svg"
 width="1200.000000pt" height="1200.000000pt" viewBox="0 0 1200.000000 1200.000000"
 preserveAspectRatio="xMidYMid meet">

<g transform="translate(0.000000,1200.000000) scale(0.100000,-0.100000)"
fill="#000000" stroke="none">
<path d="M5640 11989 c-1663 -103 -3189 -876 -4253 -2153 -1315 -1578 -1728
-3726 -1095 -5685 590 -1827 2032 -3269 3859 -3859 1202 -389 2496 -389 3698
0 1827 590 3269 2032 3859 3859 389 1202 389 2496 0 3698 -590 1827 -2032
3269 -3859 3859 -706 228 -1480 327 -2209 281z m498 -429 c182 -23 399 -111
567 -231 183 -131 388 -363 547 -619 353 -570 636 -1444 802 -2478 13 -85 26
-155 28 -156 2 -2 80 -15 173 -30 429 -70 941 -186 1295 -295 1190 -367 1865
-887 2002 -1541 26 -126 21 -375 -10 -490 -95 -352 -324 -646 -712 -912 -563
-386 -1483 -698 -2575 -874 -93 -15 -171 -28 -173 -29 -2 -2 -18 -94 -37 -206
-225 -1359 -622 -2359 -1140 -2874 -135 -134 -254 -220 -400 -291 -208 -100
-407 -138 -618 -117 -142 15 -263 50 -402 117 -458 221 -847 759 -1145 1583
-163 449 -310 1042 -404 1631 -13 85 -26 155 -28 156 -2 2 -79 15 -173 30
-423 68 -941 186 -1295 295 -1194 369 -1881 900 -2004 1551 -21 107 -21 313 0
420 123 651 809 1182 2004 1551 354 109 872 227 1295 295 94 15 171 28 173 29
1 1 20 107 42 236 225 1343 620 2332 1135 2844 135 134 254 220 400 291 220
106 426 142 653 114z"/>
<path d="M5930 10529 c-71 -35 -197 -170 -289 -309 -257 -388 -484 -1026 -634
-1780 -54 -269 -52 -250 -25 -250 13 0 145 7 293 15 159 9 455 15 720 15 265
0 561 -6 720 -15 149 -8 280 -15 293 -15 27 0 29 -21 -28 265 -121 597 -275
1083 -470 1480 -167 340 -374 592 -502 611 -22 3 -48 -2 -78 -17z"/>
<path d="M5340 7189 c-80 -4 -227 -13 -326 -20 l-182 -12 -6 -61 c-45 -451
-56 -1273 -26 -1831 74 -1347 310 -2468 680 -3220 181 -369 413 -635 532 -611
130 26 333 276 498 611 302 613 522 1502 626 2520 21 210 82 262 334 290 827
91 1508 239 2075 451 424 158 750 343 910 516 131 141 126 209 -24 359 -116
116 -247 203 -470 314 -774 385 -1914 623 -3329 695 -229 11 -1071 11 -1292
-1z"/>
<path d="M3695 7009 c-120 -22 -401 -83 -530 -115 -467 -117 -807 -236 -1129
-397 -219 -110 -366 -206 -472 -312 -164 -161 -164 -229 0 -390 306 -303 1048
-603 1941 -785 105 -22 214 -42 244 -46 l53 -7 -6 39 c-39 253 -39 1733 0
1987 6 36 5 37 -23 36 -15 -1 -50 -5 -78 -10z"/>
</g>
</svg>
